<svg width="56" height="56" viewBox="0 0 56 56" fill="none" xmlns="http://www.w3.org/2000/svg">
<path d="M46.692 49.4391C42.0387 49.4391 38.2525 46.692 38.2525 43.3159C38.2525 42.0695 38.7658 40.8694 39.7379 39.8457L42.2652 41.1076C41.6483 41.7589 41.3215 42.5221 41.3215 43.3159C41.3215 45.464 43.7314 47.2124 46.6921 47.2124C49.6528 47.2124 52.0627 45.464 52.0627 43.3159C52.0627 42.4809 51.7037 41.6843 51.0254 41.0141L53.4998 39.6965C54.5677 40.7525 55.1316 42.0039 55.1316 43.3159C55.1316 46.692 51.3454 49.4391 46.6921 49.4391H46.692Z" fill="#9C843B"/>
<path d="M53.0291 42.4086C52.4974 42.4086 51.9803 42.2082 51.6964 41.8491L46.691 35.5167L41.6871 41.8491C41.2651 42.3824 40.3276 42.5672 39.5918 42.2611C38.8568 41.9555 38.6029 41.2747 39.0241 40.7414L44.2152 34.174C44.7975 33.4392 45.699 33.0173 46.691 33.0173C47.6838 33.0173 48.586 33.4392 49.1676 34.1734L54.3587 40.7414C54.7799 41.2747 54.5259 41.9554 53.7909 42.261C53.5592 42.3578 53.2965 42.4087 53.0291 42.4086ZM29.8893 4.45323C30.3132 4.45323 30.6565 4.20409 30.6565 3.89657V2.78327C30.6565 2.47575 30.3132 2.22661 29.8893 2.22661H10.7086C10.6078 2.2266 10.508 2.24099 10.415 2.26896C10.3219 2.29693 10.2373 2.33793 10.166 2.38962C10.0948 2.44131 10.0383 2.50269 9.99972 2.57023C9.96117 2.63777 9.94134 2.71016 9.94135 2.78327V3.89657C9.94135 4.20409 10.2847 4.45323 10.7086 4.45323H29.8893ZM29.8893 6.67984H10.7086C8.58986 6.67984 6.87244 5.43378 6.87244 3.89657V2.78327C6.87244 1.24606 8.58986 0 10.7086 0H29.8893C32.008 0 33.7255 1.24606 33.7255 2.78327V3.89657C33.7255 5.43378 32.008 6.67984 29.8893 6.67984Z" fill="#9C843B"/>
<path d="M15.3123 14.3151V4.45288H25.2863V14.3151H15.3123ZM22.2174 12.0885V6.67949H18.3813V12.0885H22.2174Z" fill="#9C843B"/>
<path d="M10.0507 53.3459C10.4746 53.3459 10.8179 53.0968 10.8179 52.7892V24.4317C10.8179 21.9721 13.5657 19.9785 16.9558 19.9785H37.0188C40.4089 19.9785 43.1567 21.9721 43.1567 24.4317V28.0688C43.1567 28.6836 43.8438 29.1821 44.6911 29.1821H49.3712C50.2185 29.1821 50.9057 28.6836 50.9057 28.0688V24.3203C50.9057 18.7864 44.7229 14.3006 37.0955 14.3006H16.879C9.25171 14.3006 3.06892 18.7864 3.06892 24.3203V52.7892C3.06892 53.0968 3.4123 53.3459 3.83615 53.3459H10.0507ZM10.0507 55.5725H3.83615C1.71742 55.5725 0 54.3265 0 52.7892V24.3203C0 17.5567 7.55676 12.074 16.879 12.074H37.0955C46.4178 12.074 53.9746 17.5567 53.9746 24.3203V28.0688C53.9746 29.9134 51.9135 31.4088 49.3712 31.4088H44.6911C42.1488 31.4088 40.0877 29.9134 40.0877 28.0688V24.4317C40.0877 23.2018 38.714 22.2051 37.0188 22.2051H16.9558C15.2606 22.2051 13.8869 23.2018 13.8869 24.4317V52.7892C13.8869 54.3265 12.1694 55.5725 10.0507 55.5725Z" fill="#9C843B"/>
</svg>
