<svg width="78" height="80" viewBox="0 0 78 80" fill="none" xmlns="http://www.w3.org/2000/svg">
<path d="M32.1751 0C31.3578 0 30.5404 0.325729 29.9167 0.976562L26.0613 5L34.0467 13.3333L37.9021 9.3099C39.1494 8.00823 39.1494 5.89802 37.9021 4.59635L34.4335 0.976562C33.8098 0.325729 32.9924 0 32.1751 0ZM22.8671 8.33333L4.11713 27.9004C4.11713 27.9004 5.58287 27.7633 6.12907 28.3333C6.67527 28.9033 6.22564 32.6333 6.89641 33.3333C7.56718 34.0333 11.1189 33.5406 11.6284 34.0723C12.1378 34.6039 12.1025 36.2337 12.1025 36.2337L30.8525 16.6667L22.8671 8.33333ZM2.10519 33.3333L0.598577 37.7865C0.539349 37.9622 0.508772 38.147 0.508118 38.3333C0.508118 38.7754 0.67638 39.1993 0.97589 39.5118C1.2754 39.8244 1.68162 40 2.10519 40C2.2837 39.9993 2.46083 39.9674 2.62923 39.9056C2.63444 39.9035 2.63964 39.9013 2.64483 39.8991L2.68538 39.8861C2.6885 39.8839 2.69162 39.8817 2.69474 39.8796L6.89641 38.3333L4.5008 35.8333L2.10519 33.3333Z" fill="#9C843B"/>
</svg>
