<svg width="80" height="80" viewBox="0 0 80 80" fill="none" xmlns="http://www.w3.org/2000/svg">
<path d="M76.6544 76.6667H74.9878V33.3344C76.3808 33.1548 77.6595 32.4701 78.5811 31.4102C79.5028 30.3503 80.0033 28.989 79.9877 27.5845C79.9877 23.6346 76.8211 22.3346 73.3212 20.0513V6.66831C73.3212 6.22629 73.1456 5.80238 72.833 5.48982C72.5205 5.17727 72.0965 5.00168 71.6545 5.00168H61.6548C61.2127 5.00168 60.7888 5.17727 60.4763 5.48982C60.1637 5.80238 59.9881 6.22629 59.9881 6.66831V11.4349L44.5385 1.35176C43.1849 0.46964 41.6042 0 39.9886 0C38.373 0 36.7922 0.46964 35.4387 1.35176L2.63941 22.7346C1.64839 23.3874 0.878641 24.3254 0.431792 25.4248C-0.0150575 26.5241 -0.117995 27.7332 0.136569 28.8922C0.391134 30.0513 0.991229 31.1059 1.85763 31.9169C2.72403 32.7278 3.816 33.2569 4.98936 33.4344V76.6667H3.32273C2.88071 76.6667 2.4568 76.8423 2.14425 77.1549C1.83169 77.4674 1.6561 77.8914 1.6561 78.3334C1.6561 78.7754 1.83169 79.1993 2.14425 79.5119C2.4568 79.8244 2.88071 80 3.32273 80H76.6544C77.0964 80 77.5203 79.8244 77.8329 79.5119C78.1455 79.1993 78.321 78.7754 78.321 78.3334C78.321 77.8914 78.1455 77.4674 77.8329 77.1549C77.5203 76.8423 77.0964 76.6667 76.6544 76.6667ZM63.3214 8.33494H69.9879V17.9514L63.3214 13.6015V8.33494ZM3.32273 27.6512C3.32273 25.7012 1.92276 27.2012 37.2553 4.1517C38.0681 3.62104 39.0179 3.33847 39.9886 3.33847C40.9593 3.33847 41.909 3.62104 42.7218 4.1517L75.5044 25.5346C76.0636 25.8992 76.455 26.4711 76.5925 27.1243C76.73 27.7775 76.6024 28.4587 76.2378 29.0178C75.8731 29.577 75.3012 29.9683 74.648 30.1059C73.9948 30.2434 73.3137 30.1158 72.7545 29.7511L40.9052 8.98492C39.5719 8.11828 41.5385 7.31829 7.22264 29.7511C6.84337 30.0007 6.40364 30.143 5.95007 30.163C5.49649 30.1829 5.04596 30.0798 4.64622 29.8646C4.24647 29.6493 3.9124 29.33 3.6794 28.9403C3.4464 28.5506 3.32316 28.1052 3.32273 27.6512V27.6512ZM8.32262 76.6667C8.32262 28.0845 8.00596 33.2177 9.03927 32.5511L39.9886 12.3682L70.9379 32.5511C71.9545 33.2177 71.6545 28.0012 71.6545 76.6667H8.32262Z" fill="#9C843B"/>
<path d="M61.3381 32.4511C60.1881 32.2178 60.0215 32.7177 55.9382 36.7843L53.8549 36.101L53.1716 34.0177C57.2049 29.9678 57.7382 29.7678 57.5048 28.6012C57.0382 26.4345 49.5884 25.1679 44.9385 29.8178C43.7786 30.9769 42.8992 32.386 42.3677 33.9372C41.8362 35.4885 41.6666 37.1407 41.8719 38.7676C41.9187 39.3026 41.8441 39.8413 41.6536 40.3434C41.4631 40.8455 41.1617 41.2982 40.7719 41.6675C31.4054 51.034 30.9054 52.1506 28.7222 51.884C26.8724 51.6554 24.995 51.911 23.2736 52.6257C21.5522 53.3404 20.0459 54.4897 18.9019 55.9612C17.758 57.4327 17.0157 59.176 16.7475 61.0204C16.4794 62.8649 16.6948 64.7474 17.3724 66.4837C17.4736 66.7416 17.6375 66.9703 17.8494 67.149C18.0612 67.3277 18.3143 67.4507 18.5856 67.507C18.857 67.5633 19.1381 67.551 19.4035 67.4712C19.6689 67.3915 19.9103 67.2468 20.1057 67.0503L23.9889 63.1837L26.0722 63.867L26.7555 65.9503L22.889 69.8336C22.692 70.0278 22.5466 70.2681 22.4657 70.5326C22.3848 70.7971 22.371 71.0776 22.4255 71.3488C22.4801 71.62 22.6013 71.8733 22.7782 72.086C22.9551 72.2986 23.1822 72.4639 23.4389 72.5669C25.157 73.2439 27.0205 73.4669 28.8498 73.2145C30.6791 72.962 32.4125 72.2426 33.883 71.1255C35.3534 70.0085 36.5113 68.5314 37.245 66.8368C37.9787 65.1422 38.2635 63.2871 38.072 61.4504C38.0126 60.8833 38.0789 60.31 38.2661 59.7714C38.4534 59.2327 38.7569 58.7419 39.1553 58.3338C48.5384 48.9507 48.8884 47.8841 51.4383 48.1341C53.2737 48.3208 55.1263 48.0328 56.8183 47.2976C58.5104 46.5624 59.9852 45.4048 61.1012 43.9358C62.2172 42.4667 62.937 40.7356 63.1915 38.9084C63.446 37.0811 63.2268 35.2192 62.5547 33.5011C62.4569 33.2377 62.294 33.0033 62.0813 32.8197C61.8686 32.6362 61.613 32.5094 61.3381 32.4511V32.4511ZM51.7716 44.7841C50.7068 44.6676 49.6293 44.7896 48.6175 45.1413C47.6057 45.493 46.6848 46.0656 45.9218 46.8174L36.7886 55.9506C36.0368 56.7136 35.4643 57.6344 35.1126 58.6463C34.7609 59.6581 34.6389 60.7356 34.7554 61.8004C34.8646 62.8284 34.7577 63.8678 34.4416 64.852C34.1255 65.8362 33.6072 66.7435 32.9198 67.5156C32.2325 68.2877 31.3913 68.9075 30.4503 69.3354C29.5093 69.7633 28.4892 69.9898 27.4555 70.0002C29.9555 67.5003 30.6554 67.117 30.2555 65.9003C28.9055 61.8671 28.9388 61.3171 27.9055 60.9838C22.1723 59.0838 23.6223 58.8338 19.9724 62.4837C19.9857 61.4397 20.2189 60.4102 20.6567 59.4623C21.0945 58.5143 21.7271 57.6693 22.5133 56.9822C23.2995 56.2951 24.2216 55.7813 25.2196 55.4743C26.2176 55.1673 27.2691 55.0741 28.3055 55.2006C29.3481 55.326 30.4057 55.2076 31.3948 54.8548C32.3839 54.502 33.2775 53.9243 34.0054 53.1673L43.1385 44.0342C47.3217 39.8509 43.0052 36.4677 47.2884 32.1678C48.6641 30.8023 50.5168 30.0254 52.455 30.0011C48.7884 33.6844 49.1217 32.3511 50.955 37.9343C51.305 38.9843 51.9383 38.9676 55.9549 40.2842C57.1882 40.7009 57.6215 39.9176 60.0548 37.4843C60.043 38.525 59.8127 39.5516 59.3789 40.4977C58.9452 41.4438 58.3175 42.2883 57.5367 42.9764C56.7559 43.6645 55.8392 44.181 54.8461 44.4924C53.853 44.8038 52.8056 44.9032 51.7716 44.7841V44.7841Z" fill="#9C843B"/>
</svg>
