<svg width="40" height="37" viewBox="0 0 40 37" fill="none" xmlns="http://www.w3.org/2000/svg">
<path d="M9.08768 33.2547C8.85135 34.1068 8.71932 34.3476 8.48175 35.1364C8.41535 35.4019 8.27084 35.641 8.06692 35.8232C7.86302 36.0054 7.6091 36.1221 7.33806 36.1583C5.79404 36.3854 4.24827 36.655 2.67794 36.4324C1.23726 36.2277 0.317157 35.3239 0.245154 33.8702C0.122578 31.3945 0.079403 28.9151 0.0155946 26.4368C-0.00315469 25.7099 -0.0127449 24.9799 0.0327886 24.255C0.12543 22.7828 0.815797 21.9985 2.28577 21.8984C3.89643 21.7881 5.51753 21.8151 7.13418 21.813C7.76911 21.8122 8.16188 22.2362 8.44185 22.7591C8.58002 23.0172 8.67818 23.2962 8.78752 23.5469C9.79352 23.4051 10.7667 23.2261 11.748 23.1385C13.543 22.9785 15.3107 23.17 16.9824 23.8658C18.9285 24.6765 20.936 24.8493 23.0082 24.6513C23.5177 24.6055 24.031 24.622 24.5365 24.7008C26.1948 24.9528 26.992 26.184 26.5776 27.7981C26.5445 27.9268 26.4951 28.0502 26.4053 28.3219C26.9874 28.2797 27.5025 28.26 28.0134 28.2024C30.2026 27.9546 32.2442 27.1745 34.2998 26.4442C35.2127 26.1199 36.1165 25.7596 37.0486 25.5044C37.5956 25.3647 38.1614 25.315 38.7244 25.3568C39.7215 25.4199 40.1863 26.1447 39.9311 27.1032C39.7218 27.891 39.2405 28.4921 38.6514 29.0252C36.9437 30.5695 34.9436 31.6002 32.7872 32.3533C29.7516 33.4131 26.6508 34.2074 23.452 34.5781C19.2097 35.0949 14.8465 35.0999 10.8044 33.7124C10.2276 33.5127 9.62714 33.4309 9.08768 33.2547V33.2547ZM9.11745 31.7268C10.0943 31.9843 10.9994 32.2273 11.9061 32.4611C14.7411 33.1908 17.6232 33.6056 20.5475 33.4085C24.9117 33.1147 29.0936 31.9886 33.1487 30.381C34.7105 29.7744 36.1532 28.8978 37.4115 27.7916C37.6854 27.5201 37.943 27.2328 38.1828 26.9308L38.0481 26.7282C37.4677 26.9003 36.8803 27.0523 36.308 27.2482C34.3219 27.928 32.3554 28.6688 30.3538 29.2982C28.7736 29.7948 27.1441 29.9986 25.4854 29.6393C25.2499 29.6011 25.0084 29.6388 24.796 29.7468C22.6888 30.8167 20.4134 31.0095 18.1116 31.022C17.575 30.9968 17.0442 30.8993 16.5337 30.732C16.4528 30.7147 16.3766 30.6813 16.3093 30.6333C16.242 30.5853 16.1852 30.5243 16.1425 30.4538C16.0996 30.3832 16.0717 30.3047 16.0604 30.2228C16.0492 30.1412 16.0547 30.0577 16.0768 29.9782C16.1571 29.707 16.3315 29.4732 16.5688 29.3191C16.8619 29.182 17.1807 29.1085 17.5044 29.1033C18.3909 29.0329 19.28 28.9931 20.1681 28.9439C21.4128 28.874 22.6452 28.7117 23.7844 28.186C24.2463 27.9757 24.6592 27.6709 24.9964 27.2914C25.4093 26.8106 25.1894 26.3379 24.5552 26.2736C24.0446 26.2376 23.532 26.2431 23.0225 26.2908C20.927 26.4255 18.8755 26.2812 16.9209 25.4235C16.5501 25.2632 16.1702 25.1244 15.7831 25.0083C13.8411 24.4014 11.7659 24.3642 9.80343 24.901C9.04025 25.1057 9.04718 25.1388 9.08768 25.9046C9.15197 27.1423 9.23689 28.3798 9.25958 29.6186C9.27201 30.2867 9.17323 30.9567 9.11699 31.727L9.11745 31.7268ZM6.87231 23.3337C5.58037 23.3337 4.34642 23.3217 3.11245 23.3374C2.00723 23.3512 1.73166 23.6328 1.70756 24.736C1.6458 27.5629 1.55363 30.3897 1.55 33.2165C1.54859 34.4139 2.14319 34.8042 2.99303 34.7406C4.11986 34.6563 5.24605 34.5543 6.36816 34.4194C6.96008 34.3483 7.06438 34.1647 7.05384 33.5432C7.0191 33.0329 7.01766 32.5206 7.04957 32.01C7.34891 29.3973 7.13745 26.7899 7.00763 24.1813C6.9771 23.8966 6.9318 23.6137 6.87186 23.3337H6.87231Z" fill="#9C843B"/>
<path d="M22.7708 9.70122C24.4938 10.88 25.1318 12.6218 25.3241 14.6069C25.6606 18.085 23.5968 20.2518 21.1763 21.177C19.1821 21.9398 17.1368 22.3271 15.0148 21.7041C12.554 20.9817 11.1027 19.0079 11.012 16.4497C10.8985 13.2534 12.8149 10.341 15.9564 9.05726C17.8691 8.27657 21.5847 8.88997 22.7708 9.70122V9.70122ZM16.9219 20.2423C17.9636 20.3665 19.8595 19.9191 20.7977 19.5064C22.5287 18.7451 23.7967 17.3438 23.5021 14.785C23.2563 12.6507 22.173 11.0249 20.1067 10.597C19.0282 10.3738 16.9217 10.2736 15.8501 10.7283C13.5101 11.7208 12.6015 14.0684 12.7235 16.6339C12.8429 19.1425 15.3705 20.0575 16.9219 20.2427V20.2423Z" fill="#9C843B"/>
<path d="M4.25732 26.8213C3.55606 26.8297 3.06353 26.3791 3.03847 25.7065C3.00995 24.9352 3.61795 24.2595 4.34395 24.2549C5.18686 24.2501 5.83821 24.7434 5.84371 25.3894C5.84954 26.0867 5.04571 26.8114 4.25732 26.8213V26.8213Z" fill="#9C843B"/>
<path d="M18.5337 13.0308V14.9446C18.8127 15.0497 19.0736 15.1365 19.3252 15.2449C20.3149 15.6703 20.5584 16.6006 19.9096 17.456C19.6417 17.8083 19.4312 17.9508 18.643 18.3127C18.5686 18.6909 18.4938 19.0632 18.4224 19.4364C18.3829 19.6444 18.2836 19.8054 18.0566 19.8106C17.8171 19.8163 17.733 19.6215 17.6903 19.4333C17.6102 19.0802 17.5556 18.7214 17.4829 18.3239C17.1932 18.2466 16.8776 18.1646 16.5636 18.0774C16.4116 18.0416 16.2627 17.9934 16.1185 17.9332C15.9934 17.8897 15.8888 17.8016 15.8247 17.6857C15.7606 17.5699 15.7413 17.4344 15.7708 17.3052C15.8218 17.0547 16.0369 16.8963 16.3682 16.9179C16.7292 16.9416 17.0878 17.0028 17.4383 17.0467C17.5847 16.643 17.6016 16.4027 17.5376 15.7155C17.2934 15.624 17.0292 15.5432 16.7813 15.4284C15.7755 14.9646 15.5539 13.9599 16.2666 13.1104C16.5608 12.7404 16.9483 12.4557 17.3893 12.2857C17.5064 12.2542 17.6088 12.1832 17.6793 12.0847C17.7497 11.9862 17.7839 11.8663 17.7758 11.7455C17.7783 11.5548 17.8198 11.3667 17.8978 11.1928C17.9313 11.1367 17.978 11.0896 18.0336 11.0554C18.0892 11.0212 18.1522 11.0009 18.2173 10.9963C18.2805 11.0142 18.3383 11.0468 18.3862 11.0915C18.4341 11.1363 18.4708 11.1917 18.4928 11.2534C18.5365 11.4759 18.5601 11.7019 18.5638 11.9286C18.8034 11.9831 19.04 12.05 19.2727 12.1288C19.6442 12.275 19.8201 12.5632 19.7749 12.8915C19.7347 13.1822 19.5766 13.2805 19.3055 13.1611C19.0684 13.0571 18.8474 12.9024 18.5337 13.0308V13.0308ZM17.6167 13.4102C17.1075 13.7123 16.8472 14.0335 16.9413 14.2728C17.0536 14.5588 17.3144 14.6308 17.6167 14.6701V13.4102ZM18.568 16.9968C18.9063 16.8719 19.2163 16.7226 19.2061 16.3799C19.1974 16.0925 18.8807 16.0333 18.6231 15.9945C18.6083 15.9923 18.5916 16.0055 18.5262 16.03C18.5262 16.2301 18.5226 16.4491 18.528 16.6679C18.5303 16.7637 18.5505 16.8592 18.568 16.9968V16.9968Z" fill="#9C843B"/>
<path d="M31.4177 4.31018V6.22413C31.6967 6.32923 31.9574 6.41601 32.2089 6.52348C33.1989 6.94887 33.4423 7.87939 32.7934 8.73474C32.5256 9.08689 32.315 9.22945 31.5269 9.59152C31.4525 9.96964 31.3776 10.1844 31.3063 10.5575C31.2667 10.7654 31.1674 10.9265 30.9405 10.9318C30.7009 10.9374 30.6167 10.7428 30.5742 10.5545C30.494 10.2014 30.4395 10.0002 30.3668 9.60273C30.0771 9.52522 29.7616 9.44341 29.4474 9.35613C29.2955 9.32024 29.1466 9.27199 29.0024 9.21183C28.8773 9.16829 28.7726 9.08014 28.7085 8.96427C28.6444 8.8484 28.6252 8.71292 28.6548 8.58382C28.7057 8.33345 28.921 8.17511 29.252 8.19669C29.6133 8.22017 29.9717 8.2816 30.3224 8.3254C30.4686 7.92176 30.4854 7.68133 30.4215 6.99424C30.1774 6.90254 29.9131 6.82188 29.6646 6.70719C28.6586 6.24334 28.4373 5.23864 29.1497 4.3891C29.444 4.01916 29.8317 3.73447 30.2727 3.56446C30.3896 3.53294 30.4921 3.46189 30.5624 3.3634C30.6328 3.26491 30.6671 3.14505 30.6592 3.02421C30.6613 2.83356 30.7029 2.64548 30.7809 2.47154C30.8145 2.41549 30.8611 2.36832 30.9167 2.33412C30.9724 2.29988 31.0353 2.27958 31.1006 2.2749C31.1638 2.2928 31.2214 2.32547 31.2694 2.37022C31.3174 2.41496 31.3539 2.47051 31.376 2.5322C31.4194 2.75471 31.4434 2.98062 31.447 3.20729C31.6868 3.26174 31.9233 3.32859 32.1561 3.40754C32.5275 3.55361 32.7034 3.84179 32.6581 4.17013C32.618 4.46097 32.4598 4.55911 32.1888 4.43968C31.9523 4.33634 31.7312 4.18177 31.4177 4.31018V4.31018ZM30.5007 4.68957C29.9914 4.99175 29.7311 5.313 29.825 5.55233C29.9373 5.83814 30.1983 5.91029 30.5007 5.94969V4.68957ZM31.4518 8.27643C31.79 8.15149 32.1002 8.00199 32.0899 7.65929C32.0815 7.37193 31.7646 7.31266 31.507 7.27406C31.4921 7.27185 31.4753 7.28508 31.41 7.30949C31.41 7.5096 31.4064 7.72862 31.4117 7.9473C31.4141 8.04325 31.4345 8.13874 31.4518 8.27643Z" fill="#9C843B"/>
<path d="M35.4852 1.0042C37.2082 2.18301 37.8463 3.92481 38.0386 5.90997C38.3751 9.38796 36.3112 11.5548 33.8907 12.4799C31.8967 13.2426 29.8514 13.6301 27.7294 13.0071C25.2684 12.2847 23.8174 10.3107 23.7265 7.75253C23.6131 4.55626 25.5294 1.64404 28.6709 0.360141C30.5836 -0.420062 34.2991 0.193434 35.4852 1.0042V1.0042ZM29.6366 11.5453C30.6784 11.6696 32.5738 11.222 33.5124 10.8095C35.2434 10.0482 36.5111 8.64681 36.2166 6.08799C35.9708 3.95393 34.8877 2.32795 32.8213 1.9002C31.7428 1.67695 29.6366 1.57675 28.5648 2.03145C26.2248 3.02402 25.3162 5.37161 25.4381 7.93689C25.5572 10.4458 28.0852 11.3608 29.6366 11.546V11.5453Z" fill="#9C843B"/>
</svg>
