<svg width="40" height="21" viewBox="0 0 40 21" fill="none" xmlns="http://www.w3.org/2000/svg">
<path d="M27.5 11.0417C25.5 11.0417 22.3834 11.3305 20 11.8911C17.6167 11.322 14.5 11.0417 12.5 11.0417C8.88335 11.0417 1.66669 11.959 1.66669 13.8021V16.1379H38.3334V13.8021C38.3334 11.959 31.1167 11.0417 27.5 11.0417ZM20.8334 14.8638H4.16669V13.8021C4.16669 13.3435 8.43335 12.3157 12.5 12.3157C16.5667 12.3157 20.8334 13.3435 20.8334 13.8021V14.8638ZM35.8334 14.8638H23.3334V13.8021C23.3334 13.4114 23 13.0717 22.4667 12.7659C23.9334 12.5111 25.7334 12.3157 27.5 12.3157C31.5667 12.3157 35.8334 13.3435 35.8334 13.8021V14.8638ZM12.5 10.1923C15.7167 10.1923 18.3334 8.85885 18.3334 7.21958C18.3334 5.58032 15.7167 4.24683 12.5 4.24683C9.28335 4.24683 6.66669 5.58032 6.66669 7.21958C6.66669 8.85885 9.28335 10.1923 12.5 10.1923ZM12.5 5.52086C14.3334 5.52086 15.8334 6.28529 15.8334 7.21958C15.8334 8.15388 14.3334 8.9183 12.5 8.9183C10.6667 8.9183 9.16669 8.15388 9.16669 7.21958C9.16669 6.28529 10.6667 5.52086 12.5 5.52086ZM27.5 10.1923C30.7167 10.1923 33.3334 8.85885 33.3334 7.21958C33.3334 5.58032 30.7167 4.24683 27.5 4.24683C24.2834 4.24683 21.6667 5.58032 21.6667 7.21958C21.6667 8.85885 24.2834 10.1923 27.5 10.1923ZM27.5 5.52086C29.3334 5.52086 30.8334 6.28529 30.8334 7.21958C30.8334 8.15388 29.3334 8.9183 27.5 8.9183C25.6667 8.9183 24.1667 8.15388 24.1667 7.21958C24.1667 6.28529 25.6667 5.52086 27.5 5.52086Z" fill="#9C843B"/>
</svg>
