<svg width="86" height="90" viewBox="0 0 86 90" fill="none" xmlns="http://www.w3.org/2000/svg">
<path d="M34.8151 45V25V45Z" fill="#9C843B"/>
<path d="M34.8151 45V25" stroke="#9C843B" stroke-width="8.02605" stroke-linecap="round" stroke-linejoin="round"/>
<path d="M74.036 25H4.50812Z" fill="#9C843B"/>
<path d="M74.036 25H4.50812" stroke="#9C843B" stroke-width="8.02605" stroke-linecap="round" stroke-linejoin="round"/>
<path d="M49.0773 7.22217V24.9999V7.22217Z" fill="#9C843B"/>
<path d="M49.0773 7.22217V24.9999" stroke="#9C843B" stroke-width="8.02605" stroke-linecap="round" stroke-linejoin="round"/>
<path d="M81.1671 45H11.6392Z" fill="#9C843B"/>
<path d="M81.1671 45H11.6392" stroke="#9C843B" stroke-width="8.02605" stroke-linecap="round" stroke-linejoin="round"/>
<path d="M49.0773 65V45V65Z" fill="#9C843B"/>
<path d="M49.0773 65V45" stroke="#9C843B" stroke-width="8.02605" stroke-linecap="round" stroke-linejoin="round"/>
<path d="M70.4705 65H11.6392Z" fill="#9C843B"/>
<path d="M70.4705 65H11.6392" stroke="#9C843B" stroke-width="8.02605" stroke-linecap="round" stroke-linejoin="round"/>
<path d="M34.8151 82.7778V65V82.7778Z" fill="#9C843B"/>
<path d="M34.8151 82.7778V65" stroke="#9C843B" stroke-width="8.02605" stroke-linecap="round" stroke-linejoin="round"/>
<path d="M61.5567 5H13.422Z" fill="#9C843B"/>
<path d="M61.5567 5H13.422" stroke="#9C843B" stroke-width="8.02605" stroke-linecap="round" stroke-linejoin="round"/>
<path d="M18.7703 5V25V5Z" fill="#9C843B"/>
<path d="M18.7703 5V25" stroke="#9C843B" stroke-width="8.02605" stroke-linecap="round" stroke-linejoin="round"/>
<path d="M18.7703 65V56.1111V65Z" fill="#9C843B"/>
<path d="M18.7703 65V56.1111" stroke="#9C843B" stroke-width="8.02605" stroke-linecap="round" stroke-linejoin="round"/>
<path d="M34.8151 45V25V45Z" fill="#9C843B"/>
<path d="M34.8151 45V25" stroke="#9C843B" stroke-width="8.02605" stroke-linecap="round" stroke-linejoin="round"/>
<path d="M65.1221 67.2222V78.3333V67.2222Z" fill="#9C843B"/>
<path d="M65.1221 67.2222V78.3333" stroke="#9C843B" stroke-width="8.02605" stroke-linecap="round" stroke-linejoin="round"/>
<path d="M56.2083 85H24.1185Z" fill="#9C843B"/>
<path d="M56.2083 85H24.1185" stroke="#9C843B" stroke-width="8.02605" stroke-linecap="round" stroke-linejoin="round"/>
<path d="M79.3843 53.8889V45V53.8889Z" fill="#9C843B"/>
<path d="M79.3843 53.8889V45" stroke="#9C843B" stroke-width="8.02605" stroke-linecap="round" stroke-linejoin="round"/>
</svg>
