<svg width="51" height="59" viewBox="0 0 51 59" fill="none" xmlns="http://www.w3.org/2000/svg">
<path d="M35.5235 18.4203C34.9693 18.4203 34.4378 18.6317 34.0459 19.0082C33.654 19.3846 33.4339 19.8952 33.4339 20.4275V31.6079C33.4339 31.9273 33.3018 32.2336 33.0667 32.4595C32.8315 32.6853 32.5126 32.8122 32.1801 32.8122H5.43301C5.10049 32.8122 4.78158 32.6853 4.54646 32.4595C4.31133 32.2336 4.17924 31.9273 4.17924 31.6079V5.91513C4.17924 5.59571 4.31133 5.28938 4.54646 5.06352C4.78158 4.83767 5.10049 4.71078 5.43301 4.71078H25.4307C25.9849 4.71078 26.5164 4.4993 26.9082 4.12287C27.3001 3.74644 27.5203 3.23589 27.5203 2.70353C27.5203 2.17118 27.3001 1.66063 26.9082 1.2842C26.5164 0.907766 25.9849 0.696289 25.4307 0.696289H5.43301C3.99378 0.701576 2.61507 1.25311 1.59737 2.23069C0.579675 3.20827 0.0055038 4.53263 0 5.91513V31.6079C0.0055038 32.9904 0.579675 34.3147 1.59737 35.2923C2.61507 36.2699 3.99378 36.8214 5.43301 36.8267H32.1801C33.6193 36.8214 34.9981 36.2699 36.0158 35.2923C37.0334 34.3147 37.6076 32.9904 37.6131 31.6079V20.4275C37.6131 19.8952 37.393 19.3846 37.0011 19.0082C36.6092 18.6317 36.0777 18.4203 35.5235 18.4203Z" fill="#9C843B"/>
<path d="M16.1318 16.7545C15.7397 16.4157 15.2287 16.232 14.7014 16.24C14.1741 16.248 13.6694 16.4473 13.2887 16.7978C12.9079 17.1483 12.6792 17.6241 12.6484 18.1298C12.6177 18.6356 12.7871 19.1338 13.1227 19.5245L17.7617 24.2014C17.9559 24.3971 18.1893 24.5531 18.4478 24.66C18.7064 24.7669 18.9847 24.8226 19.2662 24.8236C19.5462 24.8252 19.8237 24.7727 20.0821 24.6693C20.3406 24.5658 20.5747 24.4135 20.7707 24.2214L34.9383 10.1707C35.1304 9.98094 35.2817 9.75667 35.3836 9.51071C35.4854 9.26476 35.5359 9.00195 35.532 8.73727C35.5281 8.4726 35.47 8.21125 35.361 7.96815C35.2519 7.72505 35.0941 7.50496 34.8966 7.32044C34.699 7.13593 34.4655 6.9906 34.2095 6.89275C33.9534 6.79491 33.6798 6.74647 33.4043 6.7502C33.1287 6.75393 32.8567 6.80975 32.6036 6.91448C32.3505 7.01921 32.1214 7.1708 31.9293 7.36059L19.2871 19.9259L16.1318 16.7545Z" fill="#9C843B"/>
</svg>
